<svg width="512" height="512" viewBox="0 0 512 512" fill="none" xmlns="http://www.w3.org/2000/svg">
<rect width="512" height="512" rx="256" fill="#121239"/>
<path d="M353.591 189.305C353.591 192.308 352.69 195.161 350.888 197.864C349.387 200.266 346.984 201.467 343.681 201.467C338.576 201.467 335.123 199.365 333.321 195.161C331.519 191.257 329.567 186.753 327.465 181.648C325.663 176.242 323.111 171.588 319.808 167.684C316.805 163.78 312.451 161.828 306.745 161.828C303.742 161.828 300.889 162.429 298.187 163.63C295.484 164.831 292.931 166.333 290.529 168.134C280.92 174.741 273.112 184.2 267.106 196.512C261.4 208.524 257.647 220.386 255.845 232.097V231.647C255.845 242.758 255.845 253.869 255.845 264.979C255.845 276.09 255.845 287.201 255.845 298.312V353.717C255.845 358.822 257.196 362.125 259.899 363.626C262.902 365.128 266.355 365.728 270.259 365.428C274.463 364.827 278.217 364.527 281.52 364.527C285.724 364.527 287.826 366.779 287.826 371.284C287.826 376.088 285.424 378.491 280.619 378.491C271.61 378.491 262.602 378.341 253.593 378.04C244.584 377.74 235.575 377.59 226.566 377.59C217.257 377.59 207.948 377.74 198.639 378.04C189.33 378.641 179.87 378.941 170.261 378.941C168.159 378.941 166.658 378.191 165.757 376.689C164.856 374.887 164.405 373.236 164.405 371.734C164.405 367.23 166.808 364.978 171.612 364.978C174.615 364.978 177.468 365.128 180.171 365.428C183.174 365.428 186.177 365.428 189.18 365.428C192.783 365.428 195.185 364.227 196.387 361.824C197.588 359.422 198.188 356.719 198.188 353.717C198.188 332.396 198.188 310.925 198.188 289.303C198.188 267.682 198.188 246.211 198.188 224.89C198.188 219.185 198.188 213.479 198.188 207.773C198.188 202.068 198.188 196.362 198.188 190.657C198.188 187.353 197.888 183.449 197.288 178.945C196.687 174.441 195.336 170.387 193.234 166.783C191.432 163.18 188.279 161.378 183.774 161.378C180.771 161.378 177.768 161.828 174.765 162.729C172.063 163.33 169.06 163.63 165.757 163.63C161.252 163.63 159 161.378 159 156.873C159 153.57 160.652 151.318 163.955 150.117C168.159 148.615 172.513 147.714 177.018 147.414C181.522 146.814 185.876 146.063 190.08 145.162C193.984 144.261 199.089 143.06 205.396 141.558C211.702 139.757 217.858 138.255 223.864 137.054C230.17 135.553 234.975 134.802 238.278 134.802C242.782 134.802 246.085 136.453 248.187 139.757C249.088 141.258 249.989 144.862 250.89 150.567C251.791 155.973 252.542 161.528 253.142 167.234C253.743 172.939 254.043 176.993 254.043 179.396C263.352 167.684 273.713 157.024 285.124 147.414C296.535 137.805 310.348 133 326.564 133C330.768 133 335.123 133.901 339.627 135.703C344.432 137.204 347.435 140.357 348.636 145.162C350.137 150.868 351.339 158.225 352.24 167.234C353.14 175.942 353.591 183.299 353.591 189.305Z" fill="white"/>
</svg>
